<svg xmlns="http://www.w3.org/2000/svg" xmlns:xlink="http://www.w3.org/1999/xlink" width="50" zoomAndPan="magnify" viewBox="0 0 37.5 37.499999" height="50" preserveAspectRatio="xMidYMid meet" version="1.0"><defs><clipPath id="8a07c89a5a"><path d="M 0 2.898438 L 37.007812 2.898438 L 37.007812 34.109375 L 0 34.109375 Z M 0 2.898438 " clip-rule="nonzero"/></clipPath><clipPath id="d9b40dfec7"><path d="M 5.921875 2.898438 L 31.085938 2.898438 C 34.355469 2.898438 37.007812 5.546875 37.007812 8.816406 L 37.007812 28.1875 C 37.007812 31.457031 34.355469 34.109375 31.085938 34.109375 L 5.921875 34.109375 C 2.652344 34.109375 0 31.457031 0 28.1875 L 0 8.816406 C 0 5.546875 2.652344 2.898438 5.921875 2.898438 Z M 5.921875 2.898438 " clip-rule="nonzero"/></clipPath><clipPath id="2a3638bbd2"><path d="M 0 0.898438 L 37.007812 0.898438 L 37.007812 32.109375 L 0 32.109375 Z M 0 0.898438 " clip-rule="nonzero"/></clipPath><clipPath id="0d873f2f97"><path d="M 5.921875 0.898438 L 31.085938 0.898438 C 34.355469 0.898438 37.007812 3.546875 37.007812 6.816406 L 37.007812 26.1875 C 37.007812 29.457031 34.355469 32.109375 31.085938 32.109375 L 5.921875 32.109375 C 2.652344 32.109375 0 29.457031 0 26.1875 L 0 6.816406 C 0 3.546875 2.652344 0.898438 5.921875 0.898438 Z M 5.921875 0.898438 " clip-rule="nonzero"/></clipPath><clipPath id="7ebe8a6cbb"><rect x="0" width="38" y="0" height="33"/></clipPath><clipPath id="f79068065c"><path d="M 9.125 5.875 L 27.628906 5.875 L 27.628906 31.039062 L 9.125 31.039062 Z M 9.125 5.875 " clip-rule="nonzero"/></clipPath><clipPath id="f7c6648841"><path d="M 14.609375 21.144531 L 22.667969 21.144531 L 22.667969 29.203125 L 14.609375 29.203125 Z M 14.609375 21.144531 " clip-rule="nonzero"/></clipPath><clipPath id="ea26b380ba"><path d="M 18.636719 21.144531 C 16.414062 21.144531 14.609375 22.949219 14.609375 25.175781 C 14.609375 27.398438 16.414062 29.203125 18.636719 29.203125 C 20.863281 29.203125 22.667969 27.398438 22.667969 25.175781 C 22.667969 22.949219 20.863281 21.144531 18.636719 21.144531 Z M 18.636719 21.144531 " clip-rule="nonzero"/></clipPath><clipPath id="15e145ae88"><path d="M 0.609375 0.144531 L 8.667969 0.144531 L 8.667969 8.203125 L 0.609375 8.203125 Z M 0.609375 0.144531 " clip-rule="nonzero"/></clipPath><clipPath id="ca83841e24"><path d="M 4.636719 0.144531 C 2.414062 0.144531 0.609375 1.949219 0.609375 4.175781 C 0.609375 6.398438 2.414062 8.203125 4.636719 8.203125 C 6.863281 8.203125 8.667969 6.398438 8.667969 4.175781 C 8.667969 1.949219 6.863281 0.144531 4.636719 0.144531 Z M 4.636719 0.144531 " clip-rule="nonzero"/></clipPath><clipPath id="77b7832e17"><rect x="0" width="9" y="0" height="9"/></clipPath><clipPath id="c58b09ac2d"><path d="M 16.632812 22.566406 L 20.335938 22.566406 L 20.335938 27.746094 L 16.632812 27.746094 Z M 16.632812 22.566406 " clip-rule="nonzero"/></clipPath><clipPath id="f223103da5"><path d="M 22.667969 19.695312 L 31.550781 19.695312 L 31.550781 28.578125 L 22.667969 28.578125 Z M 22.667969 19.695312 " clip-rule="nonzero"/></clipPath><clipPath id="be16f64afd"><path d="M 5 0.695312 L 9 0.695312 L 9 4 L 5 4 Z M 5 0.695312 " clip-rule="nonzero"/></clipPath><clipPath id="1c59eb7109"><path d="M 6 4 L 9.550781 4 L 9.550781 8 L 6 8 Z M 6 4 " clip-rule="nonzero"/></clipPath><clipPath id="3c2833e449"><path d="M 0.890625 7 L 8 7 L 8 9.421875 L 0.890625 9.421875 Z M 0.890625 7 " clip-rule="nonzero"/></clipPath><clipPath id="57b9fbbb09"><rect x="0" width="10" y="0" height="10"/></clipPath></defs><g clip-path="url(#8a07c89a5a)"><g clip-path="url(#d9b40dfec7)"><g transform="matrix(1, 0, 0, 1, 0, 2)"><g clip-path="url(#7ebe8a6cbb)"><g clip-path="url(#2a3638bbd2)"><g clip-path="url(#0d873f2f97)"><path fill="#002145" d="M 0 0.898438 L 37.066406 0.898438 L 37.066406 32.109375 L 0 32.109375 Z M 0 0.898438 " fill-opacity="1" fill-rule="nonzero"/></g></g></g></g></g></g><g clip-path="url(#f79068065c)"><path fill="#ffffff" d="M 26.988281 31.132812 L 10.007812 31.132812 C 9.519531 31.132812 9.125 30.734375 9.125 30.25 L 9.125 6.761719 C 9.125 6.273438 9.519531 5.878906 10.007812 5.878906 L 26.988281 5.878906 C 27.472656 5.878906 27.867188 6.273438 27.867188 6.761719 L 27.867188 30.25 C 27.867188 30.734375 27.472656 31.132812 26.988281 31.132812 Z M 10.007812 6.371094 C 9.792969 6.371094 9.617188 6.546875 9.617188 6.761719 L 9.617188 30.25 C 9.617188 30.464844 9.792969 30.636719 10.007812 30.636719 L 26.988281 30.636719 C 27.203125 30.636719 27.375 30.464844 27.375 30.25 L 27.375 6.761719 C 27.375 6.546875 27.203125 6.371094 26.988281 6.371094 Z M 10.007812 6.371094 " fill-opacity="1" fill-rule="evenodd"/></g><path fill="#ffffff" d="M 18.851562 12.734375 C 18.105469 12.734375 17.496094 12.164062 17.496094 11.460938 C 17.496094 11.324219 17.605469 11.214844 17.742188 11.214844 C 17.878906 11.214844 17.988281 11.324219 17.988281 11.460938 C 17.988281 11.890625 18.375 12.242188 18.851562 12.242188 C 19.328125 12.242188 19.71875 11.890625 19.71875 11.460938 C 19.71875 11.03125 19.328125 10.679688 18.851562 10.679688 C 18.105469 10.679688 17.496094 10.109375 17.496094 9.40625 C 17.496094 8.707031 18.105469 8.132812 18.851562 8.132812 C 19.601562 8.132812 20.210938 8.707031 20.210938 9.40625 C 20.210938 9.542969 20.101562 9.652344 19.964844 9.652344 C 19.828125 9.652344 19.71875 9.542969 19.71875 9.40625 C 19.71875 8.976562 19.328125 8.628906 18.851562 8.628906 C 18.378906 8.628906 17.988281 8.976562 17.988281 9.40625 C 17.988281 9.835938 18.378906 10.1875 18.851562 10.1875 C 19.601562 10.1875 20.210938 10.757812 20.210938 11.460938 C 20.210938 12.164062 19.601562 12.734375 18.851562 12.734375 Z M 18.851562 12.734375 " fill-opacity="1" fill-rule="evenodd"/><path fill="#ffffff" d="M 14.53125 12.734375 C 13.28125 12.734375 12.261719 11.714844 12.261719 10.464844 C 12.261719 9.210938 13.28125 8.195312 14.53125 8.195312 C 15.339844 8.195312 16.09375 8.632812 16.5 9.335938 C 16.566406 9.453125 16.527344 9.601562 16.410156 9.671875 C 16.289062 9.738281 16.140625 9.699219 16.070312 9.578125 C 15.753906 9.03125 15.164062 8.6875 14.53125 8.6875 C 13.550781 8.6875 12.753906 9.484375 12.753906 10.464844 C 12.753906 11.441406 13.550781 12.242188 14.53125 12.242188 C 15.429688 12.242188 16.175781 11.570312 16.289062 10.703125 L 15.324219 10.703125 C 15.1875 10.703125 15.078125 10.589844 15.078125 10.457031 C 15.078125 10.320312 15.1875 10.207031 15.324219 10.207031 L 16.554688 10.207031 C 16.691406 10.207031 16.800781 10.320312 16.800781 10.457031 L 16.800781 10.464844 C 16.800781 11.714844 15.78125 12.734375 14.53125 12.734375 Z M 14.53125 12.734375 " fill-opacity="1" fill-rule="evenodd"/><path fill="#ffffff" d="M 22.699219 12.734375 C 22.566406 12.734375 22.453125 12.621094 22.453125 12.488281 L 22.453125 8.382812 C 22.453125 8.246094 22.566406 8.132812 22.699219 8.132812 C 22.835938 8.132812 22.949219 8.246094 22.949219 8.382812 L 22.949219 12.488281 C 22.949219 12.621094 22.835938 12.734375 22.699219 12.734375 Z M 22.699219 12.734375 " fill-opacity="1" fill-rule="evenodd"/><path fill="#ffffff" d="M 24.484375 8.628906 L 20.917969 8.628906 C 20.78125 8.628906 20.671875 8.519531 20.671875 8.382812 C 20.671875 8.246094 20.78125 8.132812 20.917969 8.132812 L 24.484375 8.132812 C 24.621094 8.132812 24.730469 8.246094 24.730469 8.382812 C 24.730469 8.519531 24.621094 8.628906 24.484375 8.628906 Z M 24.484375 8.628906 " fill-opacity="1" fill-rule="evenodd"/><path fill="#ffffff" d="M 23.453125 15.417969 L 13.542969 15.417969 C 13.40625 15.417969 13.292969 15.308594 13.292969 15.171875 C 13.292969 15.035156 13.40625 14.925781 13.542969 14.925781 L 23.453125 14.925781 C 23.589844 14.925781 23.699219 15.035156 23.699219 15.171875 C 23.699219 15.308594 23.589844 15.417969 23.453125 15.417969 Z M 23.453125 15.417969 " fill-opacity="1" fill-rule="evenodd"/><path fill="#ffffff" d="M 23.453125 17.984375 L 13.542969 17.984375 C 13.40625 17.984375 13.292969 17.875 13.292969 17.738281 C 13.292969 17.601562 13.40625 17.492188 13.542969 17.492188 L 23.453125 17.492188 C 23.589844 17.492188 23.699219 17.601562 23.699219 17.738281 C 23.699219 17.875 23.589844 17.984375 23.453125 17.984375 Z M 23.453125 17.984375 " fill-opacity="1" fill-rule="evenodd"/><path fill="#ffffff" d="M 23.453125 20.554688 L 13.542969 20.554688 C 13.40625 20.554688 13.292969 20.441406 13.292969 20.308594 C 13.292969 20.171875 13.40625 20.058594 13.542969 20.058594 L 23.453125 20.058594 C 23.589844 20.058594 23.699219 20.171875 23.699219 20.308594 C 23.699219 20.441406 23.589844 20.554688 23.453125 20.554688 Z M 23.453125 20.554688 " fill-opacity="1" fill-rule="evenodd"/><path fill="#ffffff" d="M 18.496094 27.492188 C 17.8125 27.492188 17.257812 26.9375 17.257812 26.253906 C 17.257812 26.117188 17.367188 26.007812 17.503906 26.007812 C 17.640625 26.007812 17.75 26.117188 17.75 26.253906 C 17.75 26.664062 18.085938 27 18.496094 27 C 18.90625 27 19.242188 26.664062 19.242188 26.253906 C 19.242188 25.84375 18.90625 25.507812 18.496094 25.507812 C 17.8125 25.507812 17.257812 24.953125 17.257812 24.269531 C 17.257812 23.585938 17.8125 23.03125 18.496094 23.03125 C 19.179688 23.03125 19.734375 23.585938 19.734375 24.269531 C 19.734375 24.40625 19.625 24.515625 19.488281 24.515625 C 19.351562 24.515625 19.242188 24.40625 19.242188 24.269531 C 19.242188 23.859375 18.90625 23.523438 18.496094 23.523438 C 18.085938 23.523438 17.75 23.859375 17.75 24.269531 C 17.75 24.679688 18.085938 25.015625 18.496094 25.015625 C 19.179688 25.015625 19.734375 25.570312 19.734375 26.253906 C 19.734375 26.9375 19.179688 27.492188 18.496094 27.492188 Z M 18.496094 27.492188 " fill-opacity="1" fill-rule="evenodd"/><path fill="#ffffff" d="M 18.496094 27.925781 C 18.359375 27.925781 18.25 27.816406 18.25 27.679688 L 18.25 22.84375 C 18.25 22.707031 18.359375 22.597656 18.496094 22.597656 C 18.632812 22.597656 18.742188 22.707031 18.742188 22.84375 L 18.742188 27.679688 C 18.742188 27.816406 18.632812 27.925781 18.496094 27.925781 Z M 18.496094 27.925781 " fill-opacity="1" fill-rule="evenodd"/><path fill="#ffffff" d="M 18.496094 28.875 C 16.503906 28.875 14.882812 27.253906 14.882812 25.261719 C 14.882812 23.269531 16.503906 21.648438 18.496094 21.648438 C 20.488281 21.648438 22.109375 23.269531 22.109375 25.261719 C 22.109375 27.253906 20.488281 28.875 18.496094 28.875 Z M 18.496094 22.140625 C 16.777344 22.140625 15.375 23.542969 15.375 25.261719 C 15.375 26.984375 16.777344 28.382812 18.496094 28.382812 C 20.21875 28.382812 21.617188 26.984375 21.617188 25.261719 C 21.617188 23.542969 20.21875 22.140625 18.496094 22.140625 Z M 18.496094 22.140625 " fill-opacity="1" fill-rule="evenodd"/><g clip-path="url(#f7c6648841)"><g clip-path="url(#ea26b380ba)"><g transform="matrix(1, 0, 0, 1, 14, 21)"><g clip-path="url(#77b7832e17)"><g clip-path="url(#15e145ae88)"><g clip-path="url(#ca83841e24)"><path fill="#ffffff" d="M 0.609375 0.144531 L 8.667969 0.144531 L 8.667969 8.203125 L 0.609375 8.203125 Z M 0.609375 0.144531 " fill-opacity="1" fill-rule="nonzero"/></g></g></g></g></g></g><g clip-path="url(#c58b09ac2d)"><path fill="#002145" d="M 19.117188 23.082031 L 20.019531 23.082031 L 20.367188 22.566406 L 16.980469 22.566406 L 16.636719 23.082031 L 17.222656 23.082031 C 17.820312 23.082031 18.367188 23.128906 18.585938 23.628906 L 16.980469 23.628906 L 16.636719 24.144531 L 18.652344 24.144531 C 18.652344 24.148438 18.652344 24.148438 18.652344 24.148438 C 18.652344 24.523438 18.34375 25.09375 17.320312 25.09375 L 16.824219 25.09375 L 16.824219 25.578125 L 18.808594 28.058594 L 19.691406 28.058594 L 17.636719 25.492188 C 18.484375 25.449219 19.273438 24.976562 19.390625 24.144531 L 20.019531 24.144531 L 20.367188 23.628906 L 19.378906 23.628906 C 19.339844 23.425781 19.253906 23.234375 19.117188 23.082031 Z M 19.117188 23.082031 " fill-opacity="1" fill-rule="nonzero"/></g><g clip-path="url(#f223103da5)"><g transform="matrix(1, 0, 0, 1, 22, 19)"><g clip-path="url(#57b9fbbb09)"><g clip-path="url(#be16f64afd)"><path fill="#ffffff" d="M 5.820312 1.296875 L 5.839844 1.320312 L 8.070312 3.550781 C 8.074219 3.554688 8.078125 3.554688 8.082031 3.558594 L 8.097656 3.574219 L 8.699219 2.972656 L 6.421875 0.695312 Z M 5.820312 1.296875 " fill-opacity="1" fill-rule="nonzero"/></g><path fill="#ffffff" d="M 5.582031 6.085938 L 3.308594 3.808594 L 2.707031 4.414062 L 4.980469 6.6875 Z M 5.582031 6.085938 " fill-opacity="1" fill-rule="nonzero"/><path fill="#ffffff" d="M 3.789062 3.84375 L 5.550781 5.605469 C 5.601562 5.296875 5.710938 5.003906 5.867188 4.742188 C 5.875 4.730469 5.882812 4.714844 5.890625 4.703125 C 6.097656 4.371094 6.378906 4.085938 6.714844 3.878906 C 6.726562 3.871094 6.742188 3.863281 6.753906 3.855469 C 7.015625 3.699219 7.308594 3.589844 7.613281 3.539062 L 5.851562 1.78125 C 5.679688 2.828125 4.835938 3.671875 3.789062 3.84375 Z M 3.789062 3.84375 " fill-opacity="1" fill-rule="nonzero"/><g clip-path="url(#1c59eb7109)"><path fill="#ffffff" d="M 6.214844 4.785156 L 9.066406 7.632812 C 9.285156 7.851562 9.523438 7.726562 9.628906 7.617188 C 9.738281 7.511719 9.863281 7.269531 9.644531 7.054688 L 6.796875 4.203125 C 6.566406 4.359375 6.371094 4.558594 6.214844 4.785156 Z M 6.214844 4.785156 " fill-opacity="1" fill-rule="nonzero"/></g><g clip-path="url(#3c2833e449)"><path fill="#ffffff" d="M 7.179688 7.960938 L 0.675781 7.960938 L 0.675781 9.253906 L 7.179688 9.253906 Z M 7.179688 7.960938 " fill-opacity="1" fill-rule="nonzero"/></g></g></g></g></svg>